<?xml version="1.0" encoding="UTF-8" standalone="no"?>
<svg
   viewBox="0 0 106 16"
   width="106"
   height="16"
   version="1.1"
   id="svg2"
   sodipodi:docname="cli-assured-logo-with-text.svg"
   inkscape:version="1.4.4 (dcaf3e7d9e, 2026-05-05)"
   xml:space="preserve"
   xmlns:inkscape="http://www.inkscape.org/namespaces/inkscape"
   xmlns:sodipodi="http://sodipodi.sourceforge.net/DTD/sodipodi-0.dtd"
   xmlns="http://www.w3.org/2000/svg"
   xmlns:svg="http://www.w3.org/2000/svg"><defs
     id="defs2" /><sodipodi:namedview
     id="namedview2"
     pagecolor="#ffffff"
     bordercolor="#666666"
     borderopacity="1.0"
     inkscape:showpageshadow="2"
     inkscape:pageopacity="0.0"
     inkscape:pagecheckerboard="0"
     inkscape:deskcolor="#d1d1d1"
     showgrid="true"
     inkscape:zoom="6.3353622"
     inkscape:cx="95.495724"
     inkscape:cy="28.885483"
     inkscape:window-width="2073"
     inkscape:window-height="1135"
     inkscape:window-x="0"
     inkscape:window-y="0"
     inkscape:window-maximized="0"
     inkscape:current-layer="svg2"><inkscape:grid
       id="grid2"
       units="px"
       originx="0"
       originy="0"
       spacingx="0.5"
       spacingy="0.5"
       empcolor="#3f3fff"
       empopacity="0.25098039"
       color="#3f3fff"
       opacity="0.1254902"
       empspacing="2"
       enabled="true"
       visible="true" /></sodipodi:namedview><rect
     width="106"
     height="16"
     rx="1.9999999"
     fill="#1a1a2e"
     id="rect1"
     x="0"
     y="0"
     style="display:inline;stroke-width:0.999994"
     ry="2" /><!-- ">" prompt --><!-- Checkmark --><path
     style="display:none;fill:none;stroke:#000000;stroke-width:0.2;stroke-linecap:butt;stroke-linejoin:miter;stroke-dasharray:none;stroke-opacity:1"
     d="m 2,3.5 6.5,9"
     id="path4"
     sodipodi:nodetypes="cc" /><path
     style="display:none;fill:none;stroke:#000000;stroke-width:0.2;stroke-linecap:butt;stroke-linejoin:miter;stroke-dasharray:none;stroke-opacity:1"
     d="M 8.5,3.5 2,12.5"
     id="path5"
     sodipodi:nodetypes="cc" /><path
     style="font-weight:bold;font-size:13.3333px;line-height:1.25;font-family:'Courier New';-inkscape-font-specification:'Courier New Bold';letter-spacing:0px;word-spacing:0px;fill:#ffffff"
     d="m 25.407806,4.4045493 q 0.123698,-0.1692704 0.266927,-0.2539056 0.149739,-0.084635 0.319009,-0.084635 0.292968,0 0.475259,0.2018224 0.188802,0.2018224 0.188802,0.683592 v 1.1328096 q 0,0.4817697 -0.188802,0.6901025 -0.182291,0.2018224 -0.475259,0.2018224 -0.266926,0 -0.429686,-0.1497392 Q 25.401296,6.676679 25.323171,6.2665238 25.277598,5.9930869 25.14088,5.8433477 24.873953,5.5503797 24.392184,5.3745989 23.916925,5.1988181 23.435155,5.1988181 q -0.598957,0 -1.100258,0.260416 -0.5013,0.260416 -0.885414,0.8463521 -0.384114,0.585936 -0.384114,1.3932256 V 8.564695 q 0,0.9635393 0.696613,1.608069 0.703123,0.64453 1.94661,0.64453 0.742185,0 1.256507,-0.201823 0.299478,-0.117187 0.638019,-0.462238 0.208333,-0.2083331 0.32552,-0.2669267 0.117187,-0.065104 0.266927,-0.065104 0.266926,0 0.468748,0.2018227 0.201823,0.201822 0.201823,0.475259 0,0.273437 -0.273437,0.585936 -0.397134,0.455728 -1.022133,0.716144 -0.839841,0.351562 -1.855464,0.351562 -1.184893,0 -2.135411,-0.48828 Q 20.811464,11.273022 20.2711,10.43318 19.730737,9.5868279 19.730737,8.5907366 V 7.685791 q 0,-1.041664 0.48177,-1.9400993 0.48828,-0.9049456 1.347653,-1.3932256 0.859373,-0.48828 1.822912,-0.48828 0.579425,0 1.080726,0.1367184 0.507811,0.130208 0.944008,0.4036448 z m 5.351549,0.9960912 v 5.2213405 h 2.877597 V 9.3589639 q 0,-0.4817697 0.182291,-0.6835921 0.188802,-0.2083328 0.48828,-0.2083328 0.292968,0 0.475259,0.2083328 0.188802,0.2018224 0.188802,0.6835921 v 2.5976501 h -6.321599 q -0.481769,0 -0.690102,-0.182292 -0.201822,-0.188801 -0.201822,-0.48828 0,-0.292968 0.201822,-0.475259 0.208333,-0.188802 0.690102,-0.188802 h 0.774738 V 5.4006405 h -0.774738 q -0.481769,0 -0.690102,-0.1822912 -0.201822,-0.1888016 -0.201822,-0.48828 0,-0.2994784 0.201822,-0.4817696 0.208333,-0.1888016 0.690102,-0.1888016 l 2.890618,0.00651 q 0.48177,0 0.683592,0.1822912 0.208333,0.1822912 0.208333,0.4817696 0,0.2994784 -0.208333,0.48828 -0.201822,0.1822912 -0.683592,0.1822912 z m 9.225237,0 v 5.2213405 h 1.347653 q 0.48177,0 0.683592,0.188802 0.208333,0.182291 0.208333,0.48177 0,0.292968 -0.208333,0.481769 -0.201822,0.182292 -0.683592,0.182292 h -4.029938 q -0.481769,0 -0.690102,-0.182292 -0.201823,-0.188801 -0.201823,-0.48828 0,-0.292968 0.201823,-0.475259 0.208333,-0.188802 0.690102,-0.188802 H 38.64996 V 5.4006405 h -1.347653 q -0.481769,0 -0.690102,-0.1822912 -0.201823,-0.1888016 -0.201823,-0.48828 0,-0.2994784 0.201823,-0.4817696 0.208333,-0.1888016 0.690102,-0.1888016 l 4.029938,0.00651 q 0.48177,0 0.683592,0.1822912 0.208333,0.1822912 0.208333,0.4817696 0,0.2994784 -0.208333,0.48828 -0.201822,0.1822912 -0.683592,0.1822912 z"
     id="text1"
     aria-label="CLI" /><path
     style="display:none;fill:none;stroke:#000000;stroke-width:0.2;stroke-linecap:butt;stroke-linejoin:miter;stroke-dasharray:none;stroke-opacity:1"
     d="m 15,3.5 -6.5,9"
     id="path6"
     sodipodi:nodetypes="cc" /><path
     style="fill:none;stroke:#00ff00;stroke-width:1.7;stroke-linecap:round;stroke-linejoin:round;stroke-dasharray:none;stroke-opacity:1"
     d="m 10.007347,8.7612233 1.699219,2.3710937 3.532345,-4.8903623"
     id="path8-5"
     sodipodi:nodetypes="ccc" /><path
     style="fill:none;stroke:#ffffff;stroke-width:1.7;stroke-linecap:round;stroke-linejoin:round;stroke-dasharray:none;stroke-opacity:1"
     d="m 3.8881978,3.506161 3.249999,4.5 -3.249999,4.5"
     id="path7"
     sodipodi:nodetypes="ccc" /><path
     style="display:none;fill:none;stroke:#000000;stroke-width:0.2;stroke-linecap:butt;stroke-linejoin:miter;stroke-dasharray:none;stroke-opacity:1"
     d="m -17.987032,3.506161 6.5,9"
     id="path4-6"
     sodipodi:nodetypes="cc" /><path
     style="display:none;fill:none;stroke:#000000;stroke-width:0.2;stroke-linecap:butt;stroke-linejoin:miter;stroke-dasharray:none;stroke-opacity:1"
     d="m -11.487032,3.506161 -6.5,9"
     id="path5-2"
     sodipodi:nodetypes="cc" /><path
     style="display:none;fill:none;stroke:#000000;stroke-width:0.2;stroke-linecap:butt;stroke-linejoin:miter;stroke-dasharray:none;stroke-opacity:1"
     d="m -4.987032,3.506161 -6.5,9"
     id="path6-9"
     sodipodi:nodetypes="cc" /><path
     style="font-weight:bold;font-size:13.3333px;line-height:1.25;font-family:'Courier New';-inkscape-font-specification:'Courier New, Bold';letter-spacing:0px;word-spacing:0px;fill:#ffffff"
     d="m 52.028251,9.8087918 h -3.242179 l -0.32552,0.8138002 h 0.32552 q 0.48177,0 0.683592,0.188801 0.208333,0.182292 0.208333,0.48177 0,0.292968 -0.208333,0.48177 -0.201822,0.182291 -0.683592,0.182291 h -1.79687 q -0.48177,0 -0.683592,-0.182291 -0.208333,-0.188802 -0.208333,-0.48828 0,-0.299479 0.214843,-0.48828 0.214843,-0.188802 0.709634,-0.175781 l 2.096349,-5.2213411 h -0.872394 q -0.48177,0 -0.690103,-0.1822912 -0.201822,-0.1888016 -0.201822,-0.48828 0,-0.2994785 0.201822,-0.4817697 0.208333,-0.1888016 0.690103,-0.1888016 l 2.884107,0.00651 2.656243,6.5559732 q 0.468749,0 0.618488,0.104166 0.299479,0.214843 0.299479,0.566405 0,0.292968 -0.201823,0.48177 -0.201822,0.182291 -0.683592,0.182291 h -1.79687 q -0.48177,0 -0.690102,-0.182291 -0.201823,-0.188802 -0.201823,-0.48828 0,-0.292968 0.201823,-0.47526 0.208332,-0.188801 0.690102,-0.188801 h 0.32552 z M 51.474867,8.4741598 50.400651,5.8309373 49.319925,8.4741598 Z M 59.840732,7.6082765 Q 59.515212,7.4064541 59.15714,7.3087981 58.799068,7.2046317 58.408443,7.2046317 q -0.774737,0 -1.230465,0.2539056 -0.201823,0.1106768 -0.201823,0.2408849 0,0.1497392 0.273437,0.292968 0.208333,0.1041664 0.930987,0.2018224 1.328122,0.1822912 1.848954,0.3645824 0.683592,0.2408848 1.054685,0.716144 0.371093,0.4752592 0.371093,1.002602 0,0.716144 -0.631509,1.197913 -0.904946,0.696613 -2.350255,0.696613 -0.579425,0 -1.074216,-0.104166 -0.48828,-0.09766 -0.898435,-0.292968 -0.09766,0.08463 -0.208333,0.130208 -0.110676,0.04557 -0.227864,0.04557 -0.312499,0 -0.5013,-0.201822 -0.182292,-0.208333 -0.182292,-0.690102 v -0.449218 q 0,-0.48177 0.182292,-0.683592 0.188801,-0.2083328 0.48828,-0.2083328 0.240884,0 0.403644,0.1367184 0.16276,0.130208 0.253906,0.4557284 0.305989,0.260416 0.735675,0.397134 0.429687,0.130208 0.989581,0.130208 0.917967,0 1.425778,-0.286458 0.240885,-0.143228 0.240885,-0.299478 0,-0.260416 -0.345052,-0.4296864 Q 59.411045,9.6525422 58.330319,9.535355 56.72225,9.3660846 56.181887,8.884315 55.641523,8.4090558 55.641523,7.712443 q 0,-0.7161441 0.605468,-1.1914033 0.82031,-0.65104 2.148432,-0.65104 0.462238,0 0.885414,0.091146 0.429687,0.084635 0.820311,0.2669264 0.123697,-0.091146 0.227864,-0.1367184 0.110676,-0.045573 0.201822,-0.045573 0.273437,0 0.455728,0.2083328 0.182291,0.2018224 0.182291,0.683592 v 0.32552 q 0,0.4361969 -0.104166,0.5924465 -0.208333,0.2994784 -0.566405,0.2994784 -0.240885,0 -0.423176,-0.1497392 -0.182291,-0.1497392 -0.234374,-0.3971345 z m 8.001281,0 Q 67.516493,7.4064541 67.158421,7.3087981 66.800349,7.2046317 66.409725,7.2046317 q -0.774737,0 -1.230465,0.2539056 -0.201823,0.1106768 -0.201823,0.2408849 0,0.1497392 0.273437,0.292968 0.208333,0.1041664 0.930987,0.2018224 1.328122,0.1822912 1.848954,0.3645824 0.683592,0.2408848 1.054685,0.716144 0.371093,0.4752592 0.371093,1.002602 0,0.716144 -0.631509,1.197913 -0.904946,0.696613 -2.350255,0.696613 -0.579425,0 -1.074216,-0.104166 -0.48828,-0.09766 -0.898435,-0.292968 -0.09766,0.08463 -0.208333,0.130208 -0.110677,0.04557 -0.227864,0.04557 -0.312499,0 -0.501301,-0.201822 -0.182291,-0.208333 -0.182291,-0.690102 v -0.449218 q 0,-0.48177 0.182291,-0.683592 0.188802,-0.2083328 0.48828,-0.2083328 0.240885,0 0.403645,0.1367184 0.16276,0.130208 0.253906,0.4557284 0.305989,0.260416 0.735675,0.397134 0.429686,0.130208 0.989581,0.130208 0.917966,0 1.425777,-0.286458 0.240885,-0.143228 0.240885,-0.299478 0,-0.260416 -0.345051,-0.4296864 Q 67.412327,9.6525422 66.3316,9.535355 64.723532,9.3660846 64.183168,8.884315 63.642805,8.4090558 63.642805,7.712443 q 0,-0.7161441 0.605467,-1.1914033 0.820311,-0.65104 2.148432,-0.65104 0.462239,0 0.885415,0.091146 0.429686,0.084635 0.82031,0.2669264 0.123698,-0.091146 0.227864,-0.1367184 0.110677,-0.045573 0.201823,-0.045573 0.273437,0 0.455728,0.2083328 0.182291,0.2018224 0.182291,0.683592 v 0.32552 q 0,0.4361969 -0.104166,0.5924465 -0.208333,0.2994784 -0.566405,0.2994784 -0.240885,0 -0.423176,-0.1497392 -0.182292,-0.1497392 -0.234375,-0.3971345 z m 9.394508,-1.562496 v 4.5768115 q 0.423176,0 0.624998,0.188801 0.201822,0.188802 0.201822,0.48177 0,0.292968 -0.208332,0.48177 -0.201823,0.182291 -0.683592,0.182291 h -1.269528 v -0.305989 q -0.572916,0.260416 -1.093748,0.390624 -0.520832,0.130208 -0.98958,0.130208 -0.657551,0 -1.13932,-0.273437 -0.48177,-0.279947 -0.761717,-0.768227 -0.201823,-0.351562 -0.201823,-0.878904 V 7.3804125 h -0.227864 q -0.481769,0 -0.690102,-0.1822912 -0.201823,-0.1888016 -0.201823,-0.48828 0,-0.292968 0.201823,-0.4752592 0.208333,-0.1888016 0.690102,-0.1888016 h 1.562496 v 3.9713445 q 0,0.423176 0.201823,0.624998 0.208333,0.195312 0.631509,0.195312 0.403644,0 0.865883,-0.15625 0.468749,-0.16276 1.152341,-0.579425 V 7.3804125 h -0.48177 q -0.48177,0 -0.690102,-0.1822912 -0.201823,-0.1888016 -0.201823,-0.48828 0,-0.292968 0.201823,-0.4752592 0.208332,-0.1888016 0.690102,-0.1888016 z m 4.88931,0 v 0.8333312 q 0.839842,-0.6054672 1.321611,-0.8072896 0.48828,-0.2018224 0.911456,-0.2018224 0.65104,0 1.263018,0.4817696 0.416666,0.32552 0.416666,0.6640608 0,0.2864576 -0.201823,0.48828 -0.195312,0.1953121 -0.475259,0.1953121 -0.247395,0 -0.520832,-0.2473953 -0.273437,-0.2473952 -0.48828,-0.2473952 -0.279947,0 -0.839842,0.3515616 -0.553384,0.3515617 -1.386715,1.0546849 v 2.0117138 h 1.901037 q 0.48177,0 0.683592,0.188801 0.208333,0.182292 0.208333,0.48177 0,0.292968 -0.208333,0.48177 -0.201822,0.182291 -0.683592,0.182291 H 79.99693 q -0.481769,0 -0.690102,-0.182291 -0.201823,-0.188802 -0.201823,-0.48828 0,-0.292968 0.201823,-0.47526 0.208333,-0.188801 0.690102,-0.188801 h 0.794269 V 7.3804125 h -0.48177 q -0.481769,0 -0.690102,-0.1822912 -0.201822,-0.1888016 -0.201822,-0.48828 0,-0.292968 0.201822,-0.4752592 0.208333,-0.1888016 0.690102,-0.1888016 z m 11.627575,3.6328033 h -5.475247 q 0.208333,0.5208322 0.735675,0.8398412 0.533853,0.31901 1.438799,0.31901 0.742185,0 1.972651,-0.31901 0.507811,-0.130208 0.703123,-0.130208 0.266927,0 0.449218,0.188802 0.182291,0.188802 0.182291,0.475259 0,0.260416 -0.195312,0.442707 -0.260416,0.240885 -1.269528,0.462239 -1.009112,0.214843 -1.940099,0.214843 -1.601559,0 -2.565098,-0.904946 -0.957029,-0.904945 -0.957029,-2.2265564 0,-1.4062464 1.035154,-2.2851505 1.041664,-0.8854144 2.395827,-0.8854144 0.8138,0 1.490882,0.2864576 0.683592,0.2864576 1.015622,0.618488 0.468749,0.4817696 0.774738,1.1914033 0.208333,0.4947904 0.208333,1.1458304 z M 92.275545,8.3439518 Q 91.969556,7.7710366 91.474766,7.4910893 90.979975,7.2046317 90.296383,7.2046317 q -0.677081,0 -1.171872,0.2864576 -0.49479,0.2799473 -0.807289,0.8528625 z m 9.192685,-4.830717 v 7.1093572 h 0.22786 q 0.47526,0 0.6836,0.188801 0.20833,0.182292 0.20833,0.48177 0,0.292968 -0.20833,0.48177 -0.20183,0.182291 -0.6836,0.182291 h -1.56249 v -0.32552 q -0.45573,0.266926 -0.957031,0.403645 -0.49479,0.136718 -1.028643,0.136718 -1.503903,0 -2.421869,-0.865883 -0.917967,-0.872394 -0.917967,-2.1679634 0,-1.3541632 0.96354,-2.3111921 0.963539,-0.9570288 2.350254,-0.9570288 0.520832,0 1.022133,0.16276 0.501301,0.1562496 0.989583,0.4752592 v -1.660152 h -0.227866 q -0.48177,0 -0.690103,-0.1822912 -0.201822,-0.1888017 -0.201822,-0.4817697 0,-0.2994784 0.201822,-0.4817696 0.208333,-0.1888016 0.690103,-0.1888016 z M 100.1336,9.177283 q 0,-0.8268208 -0.579428,-1.399736 -0.579425,-0.5729153 -1.419267,-0.5729153 -0.833331,0 -1.412757,0.5729153 -0.579425,0.5729152 -0.579425,1.3802048 0,0.7356752 0.520832,1.2109342 0.520832,0.468749 1.47135,0.468749 0.944008,0 1.47135,-0.468749 0.527345,-0.475259 0.527345,-1.191403 z"
     id="text2"
     aria-label="Assured" /></svg>
